# Blender v2.77 (sub 0) OBJ File: 'Houses.blend'
# www.blender.org
mtllib House4.mtl
o Cube.004
v -1.000000 0.000000 2.000000
v -1.000000 2.000000 2.000000
v -1.000000 0.000000 -1.000000
v -1.000000 2.000000 -1.000000
v 2.000000 0.000000 2.000000
v 2.000000 2.000000 2.000000
v 2.000000 0.000000 -1.000000
v 2.000000 2.000000 -1.000000
v -1.000000 3.000000 0.500000
v 2.000000 2.000000 -3.000000
v 2.000000 3.000000 0.500000
v -1.000000 0.000000 -3.000000
v -1.000000 2.000000 -3.000000
v 2.000000 0.000000 -3.000000
v 2.000000 2.548043 -2.000000
v -1.000000 2.548043 -2.000000
vt 0.4189 0.2095
vt 0.6284 0.2095
vt 0.6284 0.5237
vt 0.3142 0.3142
vt 0.1047 0.5237
vt 0.1047 0.3142
vt 0.1047 0.0000
vt 0.3142 0.0000
vt 0.9426 0.7095
vt 0.6284 0.8229
vt 0.6284 0.7095
vt 0.9426 0.5237
vt 0.3142 0.8915
vt 0.0000 1.0000
vt 0.0000 0.8915
vt 0.3142 0.7123
vt 0.0000 0.5237
vt 0.3142 0.5237
vt 0.4189 0.0000
vt 0.6284 0.0000
vt 0.9426 0.0000
vt 0.9426 0.2095
vt 0.6284 0.5237
vt 0.3142 0.8052
vt 0.0000 0.7123
vt 0.0000 0.8052
vt 0.4189 0.5237
vt 0.3142 0.3666
vt 0.0473 0.4189
vt 0.3142 0.5237
vt 0.0000 0.1571
vt 0.9426 0.8229
vt 0.3142 1.0000
vt 0.3615 0.1047
vt 0.9426 0.5237
vn -1.0000 0.0000 0.0000
vn 1.0000 0.0000 0.0000
vn 0.0000 0.0000 1.0000
vn 0.0000 -1.0000 0.0000
vn 0.0000 0.0000 -1.0000
vn 0.0000 0.8321 -0.5547
vn 0.0000 0.8321 0.5547
vn 0.0000 0.8769 0.4806
vn 0.0000 0.8769 -0.4806
usemtl Material.001
s off
f 4/1/1 3/2/1 1/3/1
f 7/4/2 10/5/2 8/6/2
f 6/7/2 5/8/2 7/4/2
f 2/9/3 5/10/3 6/11/3
f 3/2/4 5/12/4 1/3/4
f 10/13/5 12/14/5 13/15/5
f 8/16/6 9/17/6 11/18/6
f 4/1/1 13/19/1 12/20/1
f 3/2/4 14/21/4 7/22/4
f 11/23/7 2/9/7 6/11/7
f 15/24/8 4/25/8 8/16/8
f 15/24/9 13/15/9 16/26/9
f 1/3/1 2/27/1 4/1/1
f 9/28/1 4/1/1 2/27/1
f 15/29/2 8/6/2 10/5/2
f 7/4/2 14/30/2 10/5/2
f 7/4/2 8/6/2 6/7/2
f 11/31/2 6/7/2 8/6/2
f 2/9/3 1/32/3 5/10/3
f 3/2/4 7/22/4 5/12/4
f 10/13/5 14/33/5 12/14/5
f 8/16/6 4/25/6 9/17/6
f 12/20/1 3/2/1 4/1/1
f 4/1/1 16/34/1 13/19/1
f 3/2/4 12/20/4 14/21/4
f 11/23/7 9/35/7 2/9/7
f 15/24/8 16/26/8 4/25/8
f 15/24/9 10/13/9 13/15/9
